<svg xmlns="http://www.w3.org/2000/svg" width="35" height="35" viewBox="0 0 35 35">
  <g id="Group_75" data-name="Group 75" transform="translate(-951 -3371)">
    <circle id="Ellipse_16" data-name="Ellipse 16" cx="17.5" cy="17.5" r="17.5" transform="translate(951 3371)" fill="#fff"/>
    <path id="facebook_1_" data-name="facebook (1)" d="M35,17.5A17.5,17.5,0,1,0,17.5,35c.1,0,.205,0,.308-.007V21.376h-3.76V16.994h3.76V13.768c0-3.739,2.283-5.776,5.619-5.776a30.542,30.542,0,0,1,3.37.171v3.91H24.5c-1.812,0-2.167.861-2.167,2.126v2.789h4.341l-.567,4.382H22.333V34.323A17.505,17.505,0,0,0,35,17.5Z" transform="translate(951 3371)" fill="#1381ff"/>
  </g>
</svg>
