<svg xmlns="http://www.w3.org/2000/svg" width="35" height="35" viewBox="0 0 35 35">
  <g id="Group_9" data-name="Group 9" transform="translate(-4134 -446)">
    <path id="Path_17" data-name="Path 17" d="M13.5,0A13.257,13.257,0,0,1,27,13,13.257,13.257,0,0,1,13.5,26,13.257,13.257,0,0,1,0,13,13.257,13.257,0,0,1,13.5,0Z" transform="translate(4138 450)" fill="#f5f8ff"/>
    <g id="messenger" transform="translate(4134 446)">
      <g id="Group_8" data-name="Group 8">
        <path id="Path_8" data-name="Path 8" d="M17.5,0C7.836,0,0,7.254,0,16.2A15.754,15.754,0,0,0,6.521,28.82V35l5.959-3.27a18.82,18.82,0,0,0,5.02.678c9.664,0,17.5-7.254,17.5-16.2S27.164,0,17.5,0Zm1.739,21.82-4.456-4.753-8.7,4.753,9.566-10.154,4.565,4.753,8.586-4.753Z" fill="#0e7fff"/>
      </g>
    </g>
  </g>
</svg>
