<svg xmlns="http://www.w3.org/2000/svg" width="35" height="35" viewBox="0 0 35 35">
  <g id="telephone_1_" data-name="telephone (1)" transform="translate(6 1)">
    <g id="Group_76" data-name="Group 76" transform="translate(-6 -1)">
      <path id="Path_16" data-name="Path 16" d="M17.5,0A17.5,17.5,0,1,1,0,17.5,17.5,17.5,0,0,1,17.5,0Z" fill="#47ba47"/>
      <path id="Path_15" data-name="Path 15" d="M130.756,125.579a12.181,12.181,0,0,1-5.4-1.233,1.105,1.105,0,0,0-1.478.512l-.794,1.644a15.536,15.536,0,0,1-5.73-5.73l1.646-.794a1.105,1.105,0,0,0,.512-1.478,12.14,12.14,0,0,1-1.236-5.4,1.1,1.1,0,0,0-1.1-1.1H113.1a1.1,1.1,0,0,0-1.1,1.1,18.777,18.777,0,0,0,18.756,18.756,1.1,1.1,0,0,0,1.1-1.1v-4.073A1.1,1.1,0,0,0,130.756,125.579Z" transform="translate(-104.277 -104.277)" fill="#f5f8ff"/>
    </g>
  </g>
</svg>
