<svg id="telephone" xmlns="http://www.w3.org/2000/svg" width="35" height="35" viewBox="0 0 35 35">
  <circle id="Ellipse_7" data-name="Ellipse 7" cx="17.5" cy="17.5" r="17.5" fill="#47ba47"/>
  <path id="Path_7" data-name="Path 7" d="M132.872,127.111a13.556,13.556,0,0,1-6-1.373,1.23,1.23,0,0,0-1.645.57l-.884,1.829a17.29,17.29,0,0,1-6.377-6.377l1.832-.884a1.23,1.23,0,0,0,.57-1.645,13.509,13.509,0,0,1-1.375-6A1.228,1.228,0,0,0,117.761,112h-4.533A1.228,1.228,0,0,0,112,113.228,20.9,20.9,0,0,0,132.872,134.1a1.228,1.228,0,0,0,1.228-1.228v-4.533A1.228,1.228,0,0,0,132.872,127.111Z" transform="translate(-105.739 -105.739)" fill="#f5f8ff"/>
</svg>
