<svg id="lawn-mower-clipart" xmlns="http://www.w3.org/2000/svg" width="633.04" height="125.5" viewBox="0 0 633.04 125.5">
  <path id="Path_26" data-name="Path 26" d="M625.4,170.2l-7.839-16.5-5.292,13.5L605.8,153.7l-5.292,13.5-6.468-13.5-5.292,13.5-6.468-13.5-5.292,13.5-6.468-13.5-5.292,13.5-6.468-13.5-5.292,13.5L547,153.7l-5.292,13.5-6.467-13.5-4.9,12.5-5.88-12.5-5.88,15.1H16.659C7.448,168.8,0,172.6,0,177.3s7.448,8.5,16.659,8.5H616.381c9.211,0,16.659-3.8,16.659-8.5C633.04,174.3,630.1,171.7,625.4,170.2Z" transform="translate(0 -60.3)" fill="#54b04e"/>
  <g id="Group_21" data-name="Group 21" transform="translate(6)">
    <path id="Path_3" data-name="Path 3" d="M29.213,15.749A26.059,26.059,0,0,0,16.43,17.256c-5.668,2.291-7.658,4.944-7.839,5.186a1.9,1.9,0,0,0-.3,1.266h0a1.99,1.99,0,0,0,3.98,0v-.241A20.207,20.207,0,0,1,17.7,20.331,23.458,23.458,0,0,1,28.671,19a1.651,1.651,0,1,0,.543-3.256Z" transform="translate(-4.853 -6.161)" fill="#94b0be"/>
    <path id="Path_4" data-name="Path 4" d="M88.248,71.3c-.06-.121-7.477-10.009-24.179-30.692C46.4,18.841,42.9,19.746,42.784,19.806c0,0,.06,0,.121-.121l-.9-.724a1.1,1.1,0,0,1,.965-.362c1.809,0,7.115,2.834,22.069,21.225,16.7,20.682,24.179,30.631,24.24,30.692l-1.025.784Z" transform="translate(-18.243 -7.385)" fill="#282829"/>
    <path id="Path_5" data-name="Path 5" d="M64.508,76.166C51.966,67.6,36.831,68.388,36.831,68.388H30.5v37.505c0,9.708,3.5,12.542,11.457,12.542H60.649c4.583,0,7.175-3.859,10.311-9.587L79.1,89.009S75.964,84,64.508,76.166Z" transform="translate(-13.677 -19.295)" fill="#94b0be"/>
    <g id="Group_17" data-name="Group 17" transform="translate(61.986 53.909)">
      <path id="Path_6" data-name="Path 6" d="M170.854,83.09a2.007,2.007,0,0,1-1.99,1.99H161.99A2.007,2.007,0,0,1,160,83.09h0a2.008,2.008,0,0,1,1.99-1.99h6.874a1.969,1.969,0,0,1,1.99,1.99Z" transform="translate(-127.077 -81.1)" fill="#ef4130"/>
      <path id="Path_7" data-name="Path 7" d="M174.352,90.322c0,2.472-1.447,4.522-3.256,4.522h-24.24c-1.809,0-3.256-2.05-3.256-4.522h0c0-2.472,1.447-4.522,3.256-4.522h24.3c1.749,0,3.2,1.99,3.2,4.522Z" transform="translate(-120.566 -82.966)" fill="#94b0be"/>
      <path id="Path_8" data-name="Path 8" d="M180.893,108.54a12.249,12.249,0,0,0-12.24-12.24H117.64a12.249,12.249,0,0,0-12.24,12.24V112.1h75.432V108.54Z" transform="translate(-105.4 -87.135)" fill="#648290"/>
    </g>
    <path id="Path_9" data-name="Path 9" d="M185.314,127.985c0-14.049-15.557-15.858-29.546-15.858h-25.2c-24.662,0-36.179-9.527-36.179-9.527A25.348,25.348,0,0,0,69,127.985V134.5H185.314Z" transform="translate(-28.962 -32.886)" fill="#ef4130"/>
    <path id="Path_10" data-name="Path 10" d="M115.255,129.728a17.728,17.728,0,1,0-33.284,8.5h31.114A17.638,17.638,0,0,0,115.255,129.728Z" transform="translate(-33.25 -36.618)" fill="#b22e20"/>
    <path id="Path_11" data-name="Path 11" d="M229.261,138.63a14.23,14.23,0,1,0-27.737,4.522h26.953A12.749,12.749,0,0,0,229.261,138.63Z" transform="translate(-81.29 -41.541)" fill="#b22e20"/>
    <g id="Group_18" data-name="Group 18" transform="translate(47.876 76.709)">
      <path id="Path_12" data-name="Path 12" d="M114.681,130.541A16.341,16.341,0,1,1,98.341,114.2,16.315,16.315,0,0,1,114.681,130.541Z" transform="translate(-82 -114.2)" fill="#282829"/>
      <path id="Path_13" data-name="Path 13" d="M112.519,134.709A10.009,10.009,0,1,1,102.509,124.7,9.985,9.985,0,0,1,112.519,134.709Z" transform="translate(-86.169 -118.369)" fill="#94b0be"/>
      <path id="Path_14" data-name="Path 14" d="M110.315,138.958a3.558,3.558,0,1,1-7.115,0,3.6,3.6,0,0,1,3.558-3.558A3.526,3.526,0,0,1,110.315,138.958Z" transform="translate(-90.417 -122.617)" fill="#648290"/>
    </g>
    <g id="Group_19" data-name="Group 19" transform="translate(120.837 83.884)">
      <path id="Path_15" data-name="Path 15" d="M228.506,138.883A12.753,12.753,0,1,1,215.723,126.1,12.79,12.79,0,0,1,228.506,138.883Z" transform="translate(-203 -126.1)" fill="#282829"/>
      <path id="Path_16" data-name="Path 16" d="M226.777,142.139a7.839,7.839,0,1,1-7.839-7.839A7.823,7.823,0,0,1,226.777,142.139Z" transform="translate(-206.216 -129.356)" fill="#94b0be"/>
      <path id="Path_17" data-name="Path 17" d="M225.047,145.472a2.774,2.774,0,1,1-2.774-2.774A2.693,2.693,0,0,1,225.047,145.472Z" transform="translate(-209.551 -132.689)" fill="#648290"/>
    </g>
    <g id="Group_20" data-name="Group 20" transform="translate(91.773 83.462)">
      <path id="Path_18" data-name="Path 18" d="M167.377,137.1a1.685,1.685,0,0,1-1.688,1.688h0A1.685,1.685,0,0,1,164,137.1V127.088a1.685,1.685,0,0,1,1.688-1.688h0a1.685,1.685,0,0,1,1.688,1.688Z" transform="translate(-158.453 -125.4)" fill="#b22e20"/>
      <path id="Path_19" data-name="Path 19" d="M176.577,137.1a1.685,1.685,0,0,1-1.688,1.688h0A1.685,1.685,0,0,1,173.2,137.1V127.088a1.685,1.685,0,0,1,1.688-1.688h0a1.685,1.685,0,0,1,1.688,1.688Z" transform="translate(-162.105 -125.4)" fill="#b22e20"/>
      <path id="Path_20" data-name="Path 20" d="M185.877,137.1a1.685,1.685,0,0,1-1.688,1.688h0A1.685,1.685,0,0,1,182.5,137.1V127.088a1.685,1.685,0,0,1,1.688-1.688h0a1.685,1.685,0,0,1,1.688,1.688Z" transform="translate(-165.798 -125.4)" fill="#b22e20"/>
      <path id="Path_21" data-name="Path 21" d="M158.177,137.1a1.685,1.685,0,0,1-1.688,1.688h0A1.685,1.685,0,0,1,154.8,137.1V127.088a1.685,1.685,0,0,1,1.688-1.688h0a1.685,1.685,0,0,1,1.688,1.688Z" transform="translate(-154.8 -125.4)" fill="#b22e20"/>
    </g>
    <path id="Path_22" data-name="Path 22" d="M87.313,76.458a1.837,1.837,0,0,1-1.568-.784l-48.3-59.695-.06-.121c-.06-.06-3.256-4.944-6.995-6.452C27.5,8.261,15.981,8.321,9.408,8.683A1.984,1.984,0,0,1,7.3,6.754a1.984,1.984,0,0,1,1.93-2.11C11.036,4.523,27.257,3.8,31.9,5.668s8.261,7.115,8.8,7.9L88.881,73.141a2.012,2.012,0,0,1-.3,2.834,1.678,1.678,0,0,1-1.266.482Z" transform="translate(-4.464 -1.749)" fill="#94b0be"/>
    <path id="Path_23" data-name="Path 23" d="M22.679,5.716a3.307,3.307,0,0,1-3.316,3.316H5.916A3.307,3.307,0,0,1,2.6,5.716h0A3.307,3.307,0,0,1,5.916,2.4H19.3a3.32,3.32,0,0,1,3.377,3.316Z" transform="translate(-2.6 -0.953)" fill="#282829"/>
    <path id="Path_24" data-name="Path 24" d="M41.7,8.984V1.266a1.266,1.266,0,1,0-2.533,0V8.984A2.748,2.748,0,0,0,37.6,11.517a2.834,2.834,0,0,0,5.668,0A2.785,2.785,0,0,0,41.7,8.984Z" transform="translate(-16.496)" fill="#648290"/>
    <path id="Path_25" data-name="Path 25" d="M83.35,47.265a1.165,1.165,0,0,1-.181,1.688l-4.824,3.618a1.173,1.173,0,0,1-1.628-.3h0a1.165,1.165,0,0,1,.181-1.688l4.824-3.618a1.182,1.182,0,0,1,1.628.3Z" transform="translate(-31.916 -16.249)" fill="#648290"/>
  </g>
</svg>
