<?xml version="1.0" encoding="utf-8"?>
<!-- Generator: Adobe Illustrator 23.0.5, SVG Export Plug-In . SVG Version: 6.00 Build 0)  -->
<svg version="1.1" id="Layer1" xmlns="http://www.w3.org/2000/svg" xmlns:xlink="http://www.w3.org/1999/xlink" x="0px" y="0px"
	 viewBox="0 0 323 185.8" style="enable-background:new 0 0 323 185.8;" xml:space="preserve">
<style type="text/css">
	.Arched_x0020_Green{fill:url(#SVGID_1_);stroke:#FFFFFF;stroke-width:0.25;stroke-miterlimit:1;}
	.st0{fill:#94B0BE;}
	.st1{fill:#282829;}
	.st2{fill:#EF4130;}
	.st3{fill:#648290;}
	.st4{fill:#B22E20;}
	.st5{fill:#54B04E;}
</style>
<linearGradient id="SVGID_1_" gradientUnits="userSpaceOnUse" x1="-10.0869" y1="234.6465" x2="-9.3798" y2="233.9394">
	<stop  offset="0" style="stop-color:#20AC4B"/>
	<stop  offset="0.9831" style="stop-color:#19361A"/>
</linearGradient>
<g>
	<path class="st0" d="M43,15.9c-0.4-0.1-10.7-1.7-21.2,2.5c-9.4,3.8-12.7,8.2-13,8.6c-0.4,0.6-0.6,1.4-0.5,2.1c0,0,0,0,0,0
		c0,1.8,1.5,3.3,3.3,3.3c1.8,0,3.3-1.5,3.3-3.3c0-0.1,0-0.2,0-0.4c1.5-1.3,4.4-3.3,9-5.2c9-3.6,18.1-2.2,18.2-2.2
		c1.5,0.3,3-0.8,3.2-2.3S44.5,16.1,43,15.9z"/>
	<path class="st1" d="M118.7,106c-0.1-0.2-12.4-16.6-40.1-50.9C49.3,19,43.5,20.5,43.3,20.6c0,0,0.1,0,0.2-0.2L42,19.2
		c0.1-0.2,0.6-0.6,1.6-0.6c3,0,11.8,4.7,36.6,35.2c27.7,34.3,40.1,50.8,40.2,50.9L118.7,106L118.7,106z"/>
	<path class="st0" d="M86.9,81.3C66.1,67.1,41,68.4,41,68.4H30.5v62.2c0,16.1,5.8,20.8,19,20.8h31c7.6,0,11.9-6.4,17.1-15.9
		l13.5-32.9C111.1,102.6,105.9,94.3,86.9,81.3z"/>
	<g>
		<path class="st2" d="M178,84.4c0,1.8-1.5,3.3-3.3,3.3h-11.4c-1.8,0-3.3-1.5-3.3-3.3l0,0c0-1.8,1.5-3.3,3.3-3.3h11.4
			C176.6,81.1,178,82.6,178,84.4L178,84.4z"/>
		<path class="st0" d="M194.6,93.3c0,4.1-2.4,7.5-5.4,7.5H149c-3,0-5.4-3.4-5.4-7.5l0,0c0-4.1,2.4-7.5,5.4-7.5h40.3
			C192.2,85.8,194.6,89.1,194.6,93.3L194.6,93.3z"/>
		<path class="st3" d="M230.6,116.6c0-11.2-9.1-20.3-20.3-20.3h-84.6c-11.2,0-20.3,9.1-20.3,20.3v5.9h125.1V116.6z"/>
	</g>
	<path class="st2" d="M261.9,144.7c0-23.3-25.8-26.3-49-26.3c0,0-13.8,0-41.8,0c-40.9,0-60-15.8-60-15.8
		c-23.3,0-42.1,18.8-42.1,42.1v10.8h192.9V144.7z"/>
	<path class="st4" d="M138.6,141.4c0-16.2-13.2-29.4-29.4-29.4c-16.2,0-29.4,13.2-29.4,29.4c0,5.1,1.3,9.9,3.6,14.1H135
		C137.3,151.3,138.6,146.5,138.6,141.4z"/>
	<path class="st4" d="M248,148c0-13-10.6-23.6-23.6-23.6c-13,0-23.6,10.6-23.6,23.6c0,2.6,0.4,5.1,1.2,7.5h44.7
		C247.6,153.1,248,150.6,248,148z"/>
	<g>
		<path class="st1" d="M136.2,141.3c0,15-12.1,27.1-27.1,27.1c-15,0-27.1-12.1-27.1-27.1c0-15,12.1-27.1,27.1-27.1
			C124.1,114.2,136.2,126.3,136.2,141.3z"/>
		<path class="st0" d="M125.7,141.3c0,9.2-7.4,16.6-16.6,16.6c-9.2,0-16.6-7.4-16.6-16.6c0-9.2,7.4-16.6,16.6-16.6
			C118.3,124.7,125.7,132.1,125.7,141.3z"/>
		<path class="st3" d="M115,141.3c0,3.3-2.7,5.9-5.9,5.9c-3.3,0-5.9-2.7-5.9-5.9s2.7-5.9,5.9-5.9C112.4,135.4,115,138,115,141.3z"/>
	</g>
	<g>
		<path class="st1" d="M245.3,147.3c0,11.7-9.5,21.2-21.2,21.2c-11.7,0-21.1-9.5-21.1-21.2c0-11.7,9.5-21.2,21.1-21.2
			C235.8,126.1,245.3,135.6,245.3,147.3z"/>
		<path class="st0" d="M237.1,147.3c0,7.2-5.8,13-13,13c-7.2,0-13-5.8-13-13c0-7.2,5.8-13,13-13
			C231.3,134.3,237.1,140.1,237.1,147.3z"/>
		<path class="st3" d="M228.7,147.3c0,2.6-2.1,4.6-4.6,4.6c-2.6,0-4.6-2.1-4.6-4.6c0-2.6,2.1-4.6,4.6-4.6
			C226.7,142.6,228.7,144.7,228.7,147.3z"/>
	</g>
	<g>
		<path class="st4" d="M169.6,144.8c0,1.5-1.2,2.8-2.8,2.8l0,0c-1.5,0-2.8-1.2-2.8-2.8v-16.6c0-1.5,1.2-2.8,2.8-2.8l0,0
			c1.5,0,2.8,1.2,2.8,2.8V144.8z"/>
		<path class="st4" d="M178.8,144.8c0,1.5-1.2,2.8-2.8,2.8l0,0c-1.5,0-2.8-1.2-2.8-2.8v-16.6c0-1.5,1.2-2.8,2.8-2.8l0,0
			c1.5,0,2.8,1.2,2.8,2.8V144.8z"/>
		<path class="st4" d="M188.1,144.8c0,1.5-1.2,2.8-2.8,2.8l0,0c-1.5,0-2.8-1.2-2.8-2.8v-16.6c0-1.5,1.2-2.8,2.8-2.8l0,0
			c1.5,0,2.8,1.2,2.8,2.8V144.8z"/>
		<path class="st4" d="M160.4,144.8c0,1.5-1.2,2.8-2.8,2.8l0,0c-1.5,0-2.8-1.2-2.8-2.8v-16.6c0-1.5,1.2-2.8,2.8-2.8l0,0
			c1.5,0,2.8,1.2,2.8,2.8V144.8z"/>
	</g>
	<path class="st0" d="M140,123.9c-1,0-2-0.4-2.6-1.3L57.3,23.6l-0.1-0.2c-0.1-0.1-5.4-8.2-11.6-10.7c-4.8-1.9-23.9-1.8-34.8-1.2
		c-1.9,0.1-3.4-1.3-3.5-3.2c-0.1-1.9,1.3-3.4,3.2-3.5c3-0.2,29.9-1.4,37.6,1.7c7.7,3.1,13.7,11.8,14.6,13.1l79.9,98.8
		c1.2,1.4,0.9,3.6-0.5,4.7C141.5,123.7,140.8,123.9,140,123.9L140,123.9z"/>
	<path class="st1" d="M35.9,7.9c0,3.1-2.5,5.5-5.5,5.5H8.1c-3.1,0-5.5-2.5-5.5-5.5l0,0c0-3.1,2.5-5.5,5.5-5.5h22.2
		C33.4,2.4,35.9,4.8,35.9,7.9L35.9,7.9z"/>
	<path class="st3" d="M44.4,14.9V2.1c0-1.1-0.9-2.1-2.1-2.1c-1.1,0-2.1,0.9-2.1,2.1v12.8c-1.6,0.8-2.6,2.3-2.6,4.2
		c0,2.6,2.1,4.7,4.7,4.7c2.6,0,4.7-2.1,4.7-4.7C47,17.2,45.9,15.6,44.4,14.9z"/>
	<path class="st3" d="M87.9,47.6c0.7,0.9,0.6,2.2-0.3,2.8l-8,6c-0.8,0.6-2.1,0.4-2.7-0.5l0,0c-0.7-0.9-0.6-2.2,0.3-2.8l8-6
		C86,46.5,87.2,46.7,87.9,47.6L87.9,47.6z"/>
</g>
<path class="st5" d="M319.1,170.2l-4-16.5l-2.7,13.5l-3.3-13.5l-2.7,13.5l-3.3-13.5l-2.7,13.5l-3.3-13.5l-2.7,13.5l-3.3-13.5
	l-2.7,13.5l-3.3-13.5l-2.7,13.5l-3.3-13.5l-2.7,13.5l-3.3-13.5l-2.5,12.5l-3-12.5l-3,15.1H8.5c-4.7,0-8.5,3.8-8.5,8.5
	c0,4.7,3.8,8.5,8.5,8.5h306c4.7,0,8.5-3.8,8.5-8.5C323,174.3,321.5,171.7,319.1,170.2z"/>
</svg>
